<svg xmlns="http://www.w3.org/2000/svg" viewBox="0 0 315.5 320.24"><defs><style>.cls-1{fill:#ff0;stroke:#000;stroke-miterlimit:10;}</style></defs><title>Asset 1</title><g id="Layer_2" data-name="Layer 2"><g id="Layer_2-2" data-name="Layer 2"><path class="cls-1" d="M129.22,128c-29.33-35.76-37.88-76.83-22-101,7.35-11.2,19.11-17.49,22-19,17.31-9,40.8-10.91,60,0,1.5.85,12.77,7.4,20,19,15.75,25.25,7,66-20,103"/><path class="cls-1" d="M189.72,129.5c35.76-29.33,74.6-36.65,98.78-20.78,11.2,7.36,17.49,19.11,19,22,9,17.32,10.9,40.81,0,60-.85,1.5-7.41,12.78-19,20-25.25,15.75-66,7-103-20"/><path class="cls-1" d="M128,189.68c-35.76,29.33-76.83,37.87-101,22-11.2-7.36-17.49-19.11-19-22-9-17.31-10.91-40.81,0-60,.85-1.5,7.4-12.78,19-20,25.25-15.75,65.72-8.22,102.72,18.82"/><path class="cls-1" d="M185.72,190.5c28,36.8,36.78,81.05,20,104.64C198,306.06,186,311.92,183.08,313.32c-17.63,8.41-41.18,9.42-60-2.18-1.46-.91-12.49-7.87-19.29-19.72C89,265.61,99.35,225.49,127.72,189.5"/></g></g></svg>