<svg xmlns="http://www.w3.org/2000/svg" viewBox="0 0 205.09 204.18"><defs><style>.cls-1{fill:#ff0;}.cls-1,.cls-2{stroke:#000;stroke-miterlimit:10;}.cls-2{fill:#fcee21;}</style></defs><title>Asset 1</title><g id="Layer_2" data-name="Layer 2"><g id="Layer_1-2" data-name="Layer 1"><polygon class="cls-1" points="103.13 2.07 122.63 80.57 202.63 100.57 122.63 120.57 102.63 201.57 83.63 120.57 2.63 101.57 83.63 80.57 103.13 2.07"/></g><g id="Layer_2-2" data-name="Layer 2"><polygon class="cls-2" points="103.13 100.07 201.13 100.07 123.13 80.07 103.13 100.07"/></g><g id="Layer_3" data-name="Layer 3"><polygon class="cls-2" points="103.13 100.07 84.13 120.07 4.13 102.07 103.13 100.07"/></g><g id="Layer_4" data-name="Layer 4"><path class="cls-2" d="M103.13,99.7V3a.23.23,0,0,0-.46-.06L84.15,80a.15.15,0,0,0,0,.13l18.7,19.68A.15.15,0,0,0,103.13,99.7Z"/></g><g id="Layer_6" data-name="Layer 6"><polygon class="cls-2" points="103.13 99.07 123.13 119.07 103.13 200.07 103.13 99.07"/></g></g></svg>