<svg xmlns="http://www.w3.org/2000/svg" viewBox="0 0 255.01 72.51"><defs><style>.cls-1{fill:#ff0;stroke:#000;stroke-miterlimit:10;stroke-width:2px;}</style></defs><title>Asset 7</title><g id="Layer_2" data-name="Layer 2"><g id="Layer_1-2" data-name="Layer 1"><path class="cls-1" d="M28.66,16.12V53.65H13V16.12H1V1H40.62V16.12Z"/><path class="cls-1" d="M45.32,15.74H59.75V37.45q0,3.28,2.74,3.28c1.8,0,2.7-1.09,2.7-3.28V15.74H79.61V37.18a17.5,17.5,0,0,1-5,12.64A16.31,16.31,0,0,1,62.45,55a16.43,16.43,0,0,1-13.23-6q-3.9-4.66-3.9-13Z"/><path class="cls-1" d="M108.54,37.8V51a17.2,17.2,0,0,1-6,1.16A15.42,15.42,0,0,1,90.74,46.9,18.46,18.46,0,0,1,85.9,34a18.65,18.65,0,0,1,5.83-13.92A19.72,19.72,0,0,1,106,14.39a21.22,21.22,0,0,1,8.64,1.81,16.26,16.26,0,0,1,6.48,4.86q3.93,5.06,3.93,14.66V48.37q0,10.31-5.84,16.72T104,71.51a24.16,24.16,0,0,1-7.21-1.42V57a11.75,11.75,0,0,0,5.71,1.54,7.36,7.36,0,0,0,6-2.56q2.13-2.56,2.13-7.35V34.14c0-4-1.64-6.06-4.9-6.06a4.93,4.93,0,0,0-3.65,1.6,5.14,5.14,0,0,0-1.56,3.68A4.92,4.92,0,0,0,102.05,37a5,5,0,0,0,3.68,1.46A6.08,6.08,0,0,0,108.54,37.8Z"/><path class="cls-1" d="M157.57,16.12V53.65H141.91V16.12h-12V1h39.61V16.12Z"/><path class="cls-1" d="M174.24,15.74h14.42V37.45c0,2.19.92,3.28,2.74,3.28s2.7-1.09,2.7-3.28V15.74h14.43V37.18a17.51,17.51,0,0,1-5,12.64A17.32,17.32,0,0,1,178.13,49q-3.88-4.66-3.89-13Z"/><path class="cls-1" d="M237.46,37.8V51a17.25,17.25,0,0,1-6,1.16,15.4,15.4,0,0,1-11.82-5.29A18.41,18.41,0,0,1,214.82,34a18.68,18.68,0,0,1,5.82-13.92A19.72,19.72,0,0,1,235,14.39a21.22,21.22,0,0,1,8.64,1.81,16.26,16.26,0,0,1,6.48,4.86Q254,26.12,254,35.72V48.37q0,10.31-5.85,16.72T233,71.51a24.22,24.22,0,0,1-7.22-1.42V57a11.75,11.75,0,0,0,5.71,1.54,7.36,7.36,0,0,0,6-2.56q2.11-2.56,2.12-7.35V34.14q0-6.06-4.9-6.06a4.91,4.91,0,0,0-3.64,1.6,5.14,5.14,0,0,0-1.56,3.68A4.94,4.94,0,0,0,231,37a5,5,0,0,0,3.68,1.46A6.12,6.12,0,0,0,237.46,37.8Z"/></g></g></svg>